<svg viewBox="0 0 1000 250" xmlns="http://www.w3.org/2000/svg"><g fill="none"><path d="m323 195.59v-165.54h21.41v72.95h97.82v-72.95h21.42v165.54h-21.46v-75.24h-97.82v75.24z"/><path d="m480.64 158.9q0-37.4 49.31-37.4a219.82 219.82 0 0 1 31.72 2.32v-11.46q0-21-32.76-21a136.14 136.14 0 0 0 -38.43 5.78v-17.31a135.8 135.8 0 0 1 38.43-5.83q54.18 0 54.18 37.74v83.81h-12l-7.41-12a70.26 70.26 0 0 1 -39.59 12q-43.45.04-43.45-36.65zm49.31-20q-27.9 0-27.9 19.68t22 19.68q22.22 0 37.62-11.81v-25.27a219.8 219.8 0 0 0 -31.67-2.31z"/><path d="m626.16 30.05v165.54h-21.41v-165.54z"/><path d="m647.82 54.36h13.43l4.63 19.64h32.88v17.41h-29.52v69.8q0 17 14.7 17h14.82v17.36h-20.38q-30.55 0-30.56-32.76z"/><path d="m741.44 30.05v20.26h-21.44v-20.26zm0 44v121.54h-21.44v-121.59z"/><path d="m758.47 158.9q0-37.4 49.32-37.4a219.68 219.68 0 0 1 31.71 2.32v-11.46q0-21-32.76-21a136.14 136.14 0 0 0 -38.43 5.78v-17.31a135.8 135.8 0 0 1 38.43-5.83q54.18 0 54.18 37.74v83.81h-12l-7.41-12a70.23 70.23 0 0 1 -39.59 12q-43.45.04-43.45-36.65zm49.32-20q-27.9 0-27.9 19.68t22 19.68q22.23 0 37.62-11.81v-25.27a219.67 219.67 0 0 0 -31.72-2.31z"/><path d="m880.24 195.59v-121.59h14.47l3.82 15.51q18.63-15.51 40.98-15.51 45.49 0 45.49 45.31v76.28h-21.42v-76.59q0-27.09-27-27.09-18.4 0-35 15.4v88.32z"/><path d="m259.39 239.86-133.91-231.93a2.21 2.21 0 0 0 -3.82 0l-106.36 184.23a2.21 2.21 0 0 0 1.91 3.31h133.9l-25.63 44.39a2.21 2.21 0 0 0 1.91 3.31h130.09a2.21 2.21 0 0 0 1.91-3.31zm-35.39-18.21h-63.16l31.59-54.72zm-44-76.24-7.79 13.49-84.65-48.9 36-62.37zm-129.34 28.59 28.22-48.88 84.65 48.88z"/></g></svg>