<svg viewBox="0 0 580 1000" xmlns="http://www.w3.org/2000/svg"><g fill="#fff"><path d="m483.77 833.32 48.11 83.34 48.12 83.34h-96.23-96.23l48.11-83.34z" opacity=".48"/><path d="m387.54 1000-48.12-83.34-48.12-83.34h96.24 96.23l-48.12 83.34z" opacity=".39"/><path d="m291.3 833.32 48.12 83.34 48.12 83.34h-96.24-96.23l48.12-83.34z" opacity=".29"/><path d="m98.84 833.32 48.12 83.34 48.11 83.34h-96.23-96.23l48.11-83.34z" opacity=".44"/><path d="m195.07 1000-48.11-83.34-48.12-83.34h96.23 96.23l-48.11 83.34z" opacity=".39"/><path d="m580 1000-48.12-83.34-48.11-83.34h96.23z" opacity=".53"/><path d="m580 666.64v166.68h-96.23l48.11-83.34z" opacity=".58"/><path d="m483.77 833.32-48.12-83.34-48.11-83.34h96.23 96.23l-48.12 83.34z" opacity=".26"/><path d="m387.54 666.64 48.11 83.34 48.12 83.34h-96.23-96.24l48.12-83.34z" opacity=".43"/><path d="m195.07 666.64 48.12 83.34 48.11 83.34h-96.23-96.23l48.12-83.34z" opacity=".29"/><path d="m291.3 833.32-48.11-83.34-48.12-83.34h96.23 96.24l-48.12 83.34z" opacity=".6"/><path d="m580 666.64-48.12-83.34-48.11-83.34h96.23z" opacity=".37"/><path d="m483.77 499.96 48.11 83.34 48.12 83.34h-96.23-96.23l48.11-83.34z" opacity=".51"/><path d="m291.3 499.96 48.12 83.34 48.12 83.34h-96.24-96.23l48.12-83.34z" opacity=".41"/><path d="m387.54 666.64-48.12-83.34-48.12-83.34h96.24 96.23l-48.12 83.34z" opacity=".36"/><path d="m580 333.28v166.68h-96.23l48.11-83.34z" opacity=".58"/><path d="m387.54 333.28 48.11 83.34 48.12 83.34h-96.23-96.24l48.12-83.34z" opacity=".16"/><path d="m483.77 499.96-48.12-83.34-48.11-83.34h96.23 96.23l-48.12 83.34z" opacity=".51"/><path d="m483.77 166.68 48.11 83.34 48.12 83.34h-96.23-96.23l48.11-83.34z" opacity=".4"/><path d="m580 333.36-48.12-83.34-48.11-83.34h96.23z" opacity=".26"/><path d="m580 0v166.68h-96.23l48.11-83.34z" opacity=".08"/></g></svg>