<svg viewBox="0 0 600 250" xmlns="http://www.w3.org/2000/svg"><g fill="none"><path d="m86.85 38.14c.75-2.81 2.44-3.37 5.81-3.37 4.69 0 14.24.75 18.93.75 11.06 0 18.56-6.19 18.93-20.43a11.75 11.75 0 0 0 -.37-2.81c-7.88 1.31-15.56 4.12-30.37 4.12-18.18 0-36.92-.56-56-.56-12.41 0-18.78 5.81-18.78 18.93 0 2.06.19 4.69.37 7.12a9.55 9.55 0 0 0 4.69-1.68 47 47 0 0 1 22.87-5.44c2.62 0 4.87.19 7.49.19-.18 1.68-.56 3.18-.94 5.06-1.87 9.98-20.8 89.21-22.48 95.77-2.25 8.62-3 15-3 19.12 0 6.18 4.12 9.18 11.8 9.18 4.69 0 14.06-1.31 20.25-5.24-1.5-3.94-2.44-6.19-2.44-10.5 0-6.94 1.69-15.74 3.56-24.55 6.18-29.24 15.37-67.29 19.68-85.66z"/><path d="m194.24 68.29c7.83-1.62 7.69-1.49 13.63-10.67 3.51-5.4 4.73-7.69 5.4-10.26a6.86 6.86 0 0 0 .14-1.62c-.14-2-2.3-3.51-6.48-3.51a51 51 0 0 0 -18.36 3.38 5.24 5.24 0 0 1 .67 1.89c.14 5.4-2.16 13.09-2.16 17 0 2.17 1.49 5 7.16 3.79z"/><path d="m363 151c2.43-9.64 5.62-24.42 8.67-40 4.18-18.15 7.06-27.15 11.24-33.41a27.77 27.77 0 0 0 -12.91-3.59 17.39 17.39 0 0 0 -11.08 4 33 33 0 0 0 -17-4.5c-27.95 0-49.47 29.72-49.47 58.63 0 1.2 0 2.38.12 3.52-1.11 1.08-2.36 2.37-3.82 3.87-3.05 3.21-6.1 5.62-7.71 5.62s-1.76-3.69-1.76-6.9c0-5.79 2.57-14.14 4.81-22 3.06-12.53 5.3-23.93 5.3-31.16 0-6.75-5-11.73-12.2-11.73-13.5 0-31 18.8-41 37.43 3.09-12.49 5.81-22.61 5.81-29.19 0-5.63-4.5-7.72-8.51-7.72-4.18 0-9.8 1.29-16.87 4.5 1.28 2.73 1.77 6.43 1.77 10.44 0 8.68-2.41 23.77-8.68 44.5l-.33 1.09c-1.44 1.29-3.14 3-5.13 5.17-3.21 3.05-5.94 5.62-7.87 5.62-1.61 0-1.77-3.69-1.77-6.9a110.15 110.15 0 0 1 2.39-19.44c1-4.5 3.85-14.62 6.26-23.61.8-2.89 1.28-5.46 1.76-8 .65-3.54 0-6.27-1.92-8.36s-5.3-2.57-8-2.57a47.17 47.17 0 0 0 -16.06 3.38 14 14 0 0 1 2.4 8 44.68 44.68 0 0 1 -.8 8.67c-1.12 5.94-2.57 15.42-5.3 25.06a103.28 103.28 0 0 0 -2.57 13c-1.36 1.27-3 2.94-5 5-3 3.21-5.62 5.62-7.86 5.62-1.61 0-1.93-3.69-1.93-6.9 0-17.35 8-39 8.19-50.44 0-9-4.18-13-11.4-13-14.62 0-31 17-41.61 36.14 7.39-29.08 12-55.58 12.37-59.59a4.52 4.52 0 0 0 .16-1.45c0-5-3.37-7.55-8-7.55-5.14 0-10.76 1.45-17.35 5.14a16.29 16.29 0 0 1 1.93 7.39c0 .48-.16 1-.16 1.61-4.66 36.46-12.21 72.12-24.42 104.08a86.19 86.19 0 0 0 12.37 1.29c8.35 0 10.92-2.89 13.33-8.68 14.78-35.34 29.88-59.11 37-59.11 1.93 0 2.57 3.06 2.57 5-.16 4.66-1.29 12.37-4.18 22.49a93.3 93.3 0 0 0 -3.27 23.54c0 11.41 5.46 16.87 14.29 16.87 7.13 0 16.33-6.72 22.34-14.57.66 9.92 5.79 14.73 14.29 14.73 4.71 0 10.9-3.17 16.21-7.8-.78 2.08-1.58 4.15-2.39 6.19a85.74 85.74 0 0 0 12.52 1.29c8.2 0 11.09-2.89 13.34-8.68 7.55-18.79 10-25.05 17.83-37.74 7.55-11.89 15.26-22 19.75-22 1.29 0 2.41 1 2.41 3.53 0 2.41-2.24 14-6.42 32.13-1.61 7.23-3.22 12.85-3.22 18.31 0 10.12 6 14.78 14.46 14.78 7.59 0 17.87-7.9 23.76-16.68 2.35 5.52 6.7 9 13.67 9 10.92 0 24.09-7.39 37.91-27-.34 18.14-7.13 35.82-12.91 41.6a19.63 19.63 0 0 1 -14.46 6.11 26 26 0 0 1 -21-11.09c-.32-.48-16.71.49-16.71 6.91 0 8.35 17.67 16.06 35.66 16.06 17.83 0 32.29-7.55 40.48-21l1.61-2.73c2.21-4.54 2.54-6.34 4.07-12.22zm-42.09-13.66c-2.89 0-5-2.41-5-7.07 0-22 11.08-44.65 24.74-44.65 5.94 0 13.17 4.34 13.81 8.51-8.52 21.02-23.78 43.19-33.58 43.19z"/><path d="m420.15 81.1c2.89 0 6.1 1.45 9.31 4.66 4.82-3.37 6.27-6.26 6.27-9.48-1-3.69-3.37-4.82-9.16-4.82-18.47 0-39.35 9-39.35 29.72a27.39 27.39 0 0 0 6.43 17.51c6.1 6.91 12.85 12.21 12.85 19.76 0 8.67-4.82 12.85-12.37 12.85-9.64-.49-15.9-9.32-19.6-19.28a11.91 11.91 0 0 0 -6.42 10.44c0 12.53 12.69 19.76 23.77 19.76 19.44 0 37.1-14.94 37.1-34.21 0-11.73-7.06-19.28-14-27.63-2.57-3.22-4.18-6.11-4.18-9.32.03-6.26 2.92-9.96 9.35-9.96z"/><path d="m540.62 150c-6.1.8-11.88-2.25-15.42-7.39-1.44-2.09-1.93-5.46-1.76-9.31.16-4.18 10.6-8.84 15.74-10.6 21.68-7.7 35.82-21.7 35.82-32.6.16-10.93-6.27-16.71-19.76-16.71-14.3 0-28.11 6.91-38.87 19.76a61.76 61.76 0 0 0 -16.08 43.95c-8 7.31-16.32 11.85-27.13 12.91-6.1.8-11.89-2.25-15.42-7.39-1.45-2.09-1.93-5.46-1.77-9.31.16-4.18 10.6-8.84 15.74-10.6 21.69-7.71 35.82-21.71 35.82-32.61.17-10.93-6.26-16.71-19.75-16.71-14.3 0-28.11 6.91-38.88 19.76a61.86 61.86 0 0 0 -16.06 44.85c.81 16.55 11.57 24.74 30.36 24.74a59.65 59.65 0 0 0 25.38-5.46 30.78 30.78 0 0 0 12.05-8.67 12.12 12.12 0 0 0 1.24-2c3.68 10.77 13.62 16.11 28.79 16.11a59.65 59.65 0 0 0 25.34-5.48 30.78 30.78 0 0 0 12.05-8.67 11.45 11.45 0 0 0 1-12.69c-8.35 8.03-17.05 13.01-28.43 14.12zm-14-34.86c4.66-19.91 11.89-31 20.56-31 5.78 0 7.71 4.81 6.1 10.43s-4.49 10.93-14.77 16.55c-5.95 3.21-10.77 5.3-13.5 11.24.99-4.47 1.64-7.21 1.64-7.21zm-67.47 0c4.66-19.91 11.89-31 20.56-31 5.79 0 7.71 4.81 6.11 10.43s-4.5 10.93-14.78 16.55c-5.94 3.21-10.76 5.3-13.49 11.24.99-4.47 1.63-7.21 1.63-7.21z"/><path d="m421.65 207.42h-23.22v-17.31h-5.09v39.29h5.09v-17.86h23.22v17.86h5.08v-39.29h-5.08z"/><path d="m442.24 200.55a32.52 32.52 0 0 0 -9.13 1.37v4.08a32.52 32.52 0 0 1 9.13-1.37q7.77 0 7.77 5v2.73a51.56 51.56 0 0 0 -7.53-.55q-11.7 0-11.7 8.87 0 8.72 10.3 8.71a16.66 16.66 0 0 0 9.4-2.86l1.76 2.86h2.86v-19.88q0-8.97-12.86-8.96zm7.76 21.93a14.21 14.21 0 0 1 -8.93 2.8q-5.22 0-5.22-4.67t6.62-4.67a51.56 51.56 0 0 1 7.53.55z"/><path d="m460.24 190.11h5.08v39.3h-5.08z"/><path d="m473.65 195.88h-3.19v25.75q0 7.77 7.26 7.77h4.84v-4.12h-3.56q-3.5 0-3.49-4v-16.61h7v-4.12h-7.81z"/><path d="m487.6 200.55h5.08v28.85h-5.08z"/><path d="m487.6 190.11h5.08v4.81h-5.08z"/><path d="m508.19 200.55a32.4 32.4 0 0 0 -9.12 1.37v4.08a32.4 32.4 0 0 1 9.12-1.37q7.77 0 7.78 5v2.73a51.56 51.56 0 0 0 -7.53-.55q-11.71 0-11.71 8.87 0 8.72 10.31 8.71a16.6 16.6 0 0 0 9.39-2.86l1.76 2.86h2.86v-19.88q0-8.97-12.86-8.96zm7.81 21.93a14.25 14.25 0 0 1 -8.93 2.8q-5.22 0-5.22-4.67c0-3.11 2.2-4.67 6.62-4.67a51.56 51.56 0 0 1 7.53.55z"/><path d="m539.71 200.55a14.89 14.89 0 0 0 -9.73 3.68l-.91-3.68h-3.43v28.85h5.08v-21a12.08 12.08 0 0 1 8.3-3.66q6.4 0 6.4 6.43v18.23h5.09v-18.11q0-10.74-10.8-10.74z"/><path d="m344 206.92a14 14 0 0 0 -5.46 1.07v-9.21h-4v29.71a40.26 40.26 0 0 0 8.89.92q11.19 0 11.2-11.69.02-10.8-10.63-10.8zm-.73 19.19a15.55 15.55 0 0 1 -4.73-.62v-14a12.2 12.2 0 0 1 5.44-1.15q6.8 0 6.79 7.22-.02 8.55-7.52 8.55z"/><path d="m368 224.48-6.36-17.56h-4.3l8.61 22.62a10.49 10.49 0 0 1 -5.49 5.38l1.52 2.8q5-1.51 7.46-7.65l9.34-23.15h-4.2z"/></g></svg>