<svg viewBox="0 0 1200 400" xmlns="http://www.w3.org/2000/svg"><g fill="#fff"><path d="m138.42 66.88c1.62-6.09 5.28-7.3 12.58-7.3 10.15 0 30.84 1.62 41 1.62 23.94 0 40.18-13.39 41-44.24a24.88 24.88 0 0 0 -.81-6.09c-17.05 2.84-33.69 8.93-65.76 8.93-39.36 0-79.95-1.22-121.35-1.22-26.79 0-40.59 12.59-40.59 41 0 4.46.41 10.14.81 15.42 2.43 0 6.49-1.22 10.15-3.65 11.76-6.09 26.78-11.77 49.55-11.77 5.69 0 10.56.4 16.24.4-.41 3.66-1.22 6.9-2 11-4.06 21.51-45 193.19-48.7 207.4-4.95 18.62-6.54 32.43-6.54 41.36 0 13.39 8.93 19.89 25.57 19.89 10.15 0 30.44-2.84 43.84-11.37-3.25-8.52-5.28-13.39-5.28-22.72 0-15 3.65-34.1 7.71-53.18 13.35-63.31 33.24-145.7 42.58-185.48z"/><path d="m371 132.16c17-3.51 16.66-3.22 29.53-23.1 7.6-11.69 10.23-16.66 11.69-22.21a15.66 15.66 0 0 0 .29-3.51c-.29-4.39-5-7.61-14-7.61a110.67 110.67 0 0 0 -39.82 7.27c.59 1.46 1.46 2.63 1.46 4.1.29 11.69-4.67 28.35-4.67 36.83 0 4.72 3.21 10.86 15.52 8.23z"/><path d="m779.48 152.26c-10.08-5.22-19.13-7.66-27.82-7.66a37.61 37.61 0 0 0 -24 8.7 71.34 71.34 0 0 0 -36.88-9.74c-60.52 0-107.13 64.35-107.13 127 0 2.6.08 5.14.25 7.6-2.38 2.35-5.11 5.14-8.26 8.4-6.61 7-13.21 12.17-16.7 12.17s-3.82-8-3.82-15c0-12.52 5.57-30.61 10.44-47.65 6.6-27.08 11.44-51.82 11.44-67.48 0-14.6-10.78-25.39-26.43-25.39-29.22 0-67.14 40.7-88.7 81 6.61-27.13 12.52-49 12.52-63.31 0-12.17-9.74-16.69-18.43-16.69-9.05 0-21.22 2.78-36.53 9.74 2.78 5.91 3.83 13.91 3.83 22.6 0 18.79-5.22 51.49-18.79 96.36-.24.79-.49 1.58-.73 2.37-3.1 2.79-6.78 6.49-11.09 11.2-7 6.6-12.87 12.17-17.05 12.17-3.48 0-3.82-8-3.82-15 0-10.09 2.43-29.91 5.22-42.09 2.08-9.74 8.34-31.65 13.56-51.13 1.74-6.26 2.78-11.83 3.82-17.39 1.4-7.66 0-13.57-4.17-18.09s-11.48-5.57-17.39-5.57c-10.78 0-22.61 2.79-34.78 7.31a30.2 30.2 0 0 1 5.21 17.39 95.77 95.77 0 0 1 -1.71 18.92c-2.43 12.87-5.56 33.4-11.47 54.27a222.35 222.35 0 0 0 -5.57 28.12c-2.94 2.76-6.47 6.37-10.79 10.84-6.61 6.95-12.18 12.17-17 12.17-3.47 0-4.17-8-4.17-15 0-37.58 17.39-84.53 17.74-109.23 0-19.48-9-28.17-24.7-28.17-31.65 0-67.13 36.87-90.09 78.26 16-63 26.09-120.35 26.78-129a9.57 9.57 0 0 0 .35-3.13c0-10.78-7.3-16.35-17.39-16.35-11.13 0-23.3 3.13-37.56 11.14 2.78 5.91 4.17 10.43 4.17 16 0 1-.35 2.08-.35 3.47-10.09 79-26.44 156.18-52.87 225.41 11.13 1.73 20.17 2.78 26.78 2.78 18.09 0 23.65-6.27 28.87-18.79 32-76.52 64.7-128 80-128 4.17 0 5.57 6.62 5.57 10.79-.36 10.09-2.79 26.79-9.05 48.7a202.11 202.11 0 0 0 -6.95 51.13c0 24.7 11.82 36.52 30.95 36.52 15.43 0 35.35-14.53 48.37-31.55 1.42 21.5 12.54 31.9 30.95 31.9 10.19 0 23.59-6.85 35.09-16.88q-2.54 6.77-5.18 13.41c11.13 1.73 20.18 2.78 27.13 2.78 17.74 0 24-6.27 28.88-18.79 16.34-40.7 21.56-54.26 38.6-81.74 16.35-25.74 33.05-47.65 42.79-47.65 2.78 0 5.22 2.08 5.22 7.65 0 5.22-4.87 30.26-13.92 69.57-3.47 15.65-7 27.83-7 39.65 0 21.91 12.88 32 31.31 32 16.42 0 38.69-17.09 51.45-36.12 5.09 11.95 14.5 19.43 29.61 19.43 23.65 0 52.17-16 82.09-58.44-.74 39.27-15.43 77.56-28 90.08-8.36 8.36-18.43 13.22-31.3 13.22-18.44 0-35.13-9.39-45.57-24-.69-1-36.18 1.05-36.18 15 0 18.09 38.27 34.78 77.22 34.78 38.62 0 69.92-16.34 87.67-45.56l3.47-5.92c4.87-9.74 5.6-13.64 8.83-26.43 5.28-20.86 12.18-52.87 18.78-86.61 9.08-39.41 15.34-58.89 24.38-72.45zm-134.26 129.4c-6.26 0-10.79-5.22-10.79-15.31 0-47.66 24-96.7 53.57-96.7 12.87 0 28.53 9.39 29.91 18.44-18.43 45.56-51.48 93.57-72.69 93.57z"/><path d="m874.1 139c-40 0-85.22 19.48-85.22 64.35a59.37 59.37 0 0 0 13.91 37.92c13.22 14.95 27.83 26.43 27.83 42.78 0 18.78-10.43 27.83-26.78 27.83-20.87-1.05-34.44-20.18-42.44-41.74-6.26 3.47-13.92 10.78-13.92 22.61 0 27.13 27.49 42.78 51.49 42.78 42.09 0 80.35-32.35 80.35-74.09 0-25.39-15.31-41.74-30.26-59.83-5.57-7-9-13.22-9-20.17 0-13.57 6.26-21.57 20.18-21.57 6.26 0 13.22 3.13 20.17 10.09 10.43-7.31 13.57-13.57 13.57-20.53-2.14-7.96-7.36-10.43-19.88-10.43z"/><path d="m1121.07 309.13c-13.21 1.74-25.73-4.87-33.39-16-3.12-4.52-4.17-11.82-3.82-20.17.34-9 23-19.13 34.09-23 47-16.69 77.56-47 77.56-70.61.35-23.66-13.56-36.18-42.78-36.18-31 0-60.87 15-84.18 42.79a133.82 133.82 0 0 0 -34.83 95.17c-17.23 15.83-35.32 25.66-58.74 28-13.22 1.74-25.74-4.87-33.39-16-3.13-4.52-4.18-11.82-3.83-20.17.35-9 23-19.13 34.09-23 47-16.69 77.57-47 77.57-70.61.35-23.66-13.57-36.18-42.79-36.18-31 0-60.87 15-84.18 42.79a133.9 133.9 0 0 0 -34.78 97c1.74 35.83 25.05 53.58 65.74 53.58a129.08 129.08 0 0 0 55-11.83c11.48-4.87 20.18-11.48 26.09-18.79a24.72 24.72 0 0 0 2.69-4.28c8 23.32 29.5 34.9 62.36 34.9a129.08 129.08 0 0 0 55-11.83c11.48-4.87 20.17-11.48 26.09-18.79a24.78 24.78 0 0 0 2.08-27.47c-18.16 17.46-36.94 28.25-61.65 30.68zm-30.26-75.48c10.09-43.13 25.75-67.13 44.53-67.13 12.52 0 16.69 10.43 13.22 22.61s-9.74 23.65-32 35.83c-12.87 6.95-23.31 11.48-29.22 24.35 2.08-9.74 3.47-15.66 3.47-15.66zm-146.09 0c10.09-43.13 25.74-67.13 44.52-67.13 12.52 0 16.7 10.43 13.22 22.61s-9.74 23.65-32 35.83c-12.87 6.95-23.3 11.48-29.22 24.35 2.09-9.74 3.48-15.66 3.48-15.66z"/></g></svg>