<svg viewBox="0 0 80 80" xmlns="http://www.w3.org/2000/svg"><path d="m33.79 20.5a.59.59 0 0 1 .53.42 6.08 6.08 0 0 0 11.35 0 .6.6 0 0 1 .54-.42.57.57 0 0 1 .18 0 19.37 19.37 0 0 1 2.86 1.19.55.55 0 0 1 .23.76 6.1 6.1 0 0 0 5.52 8.6 6.11 6.11 0 0 0 2.48-.53.66.66 0 0 1 .3-.07.51.51 0 0 1 .47.3 19.83 19.83 0 0 1 1.19 2.86.56.56 0 0 1 -.38.71 6.08 6.08 0 0 0 0 11.36.56.56 0 0 1 .38.71 20.43 20.43 0 0 1 -1.19 2.87.51.51 0 0 1 -.47.29.66.66 0 0 1 -.3-.07 6.1 6.1 0 0 0 -2.48-.48 6.09 6.09 0 0 0 -5.55 8.56.55.55 0 0 1 -.23.76 19.83 19.83 0 0 1 -2.86 1.19.57.57 0 0 1 -.18 0 .6.6 0 0 1 -.54-.42 6.08 6.08 0 0 0 -11.35 0 .59.59 0 0 1 -.54.42h-.17a20.59 20.59 0 0 1 -2.87-1.18.57.57 0 0 1 -.23-.77 6.09 6.09 0 0 0 -8-8 .66.66 0 0 1 -.27.06.55.55 0 0 1 -.5-.28 21.64 21.64 0 0 1 -1.18-2.87.58.58 0 0 1 .38-.71 6.09 6.09 0 0 0 0-11.36.58.58 0 0 1 -.38-.71 21 21 0 0 1 1.18-2.86.54.54 0 0 1 .5-.29.66.66 0 0 1 .27.06 6.12 6.12 0 0 0 2.49.53 6.09 6.09 0 0 0 5.54-8.57.55.55 0 0 1 .23-.76 19.49 19.49 0 0 1 2.87-1.19.57.57 0 0 1 .18 0m0-2a2.54 2.54 0 0 0 -.81.13 22.08 22.08 0 0 0 -3.14 1.3 2.56 2.56 0 0 0 -1.16 3.36 4.08 4.08 0 0 1 -3.68 5.65 4.13 4.13 0 0 1 -1.68-.36 2.59 2.59 0 0 0 -1.08-.23 2.55 2.55 0 0 0 -2.28 1.38 22.2 22.2 0 0 0 -1.33 3.16 2.59 2.59 0 0 0 1.55 3.2 4.08 4.08 0 0 1 0 7.63 2.57 2.57 0 0 0 -1.55 3.17 22.2 22.2 0 0 0 1.3 3.15 2.55 2.55 0 0 0 2.28 1.38 2.59 2.59 0 0 0 1.08-.23 4.12 4.12 0 0 1 1.71-.3 4.08 4.08 0 0 1 3.71 5.75 2.56 2.56 0 0 0 1.16 3.36 22.57 22.57 0 0 0 3.13 1.26 2.53 2.53 0 0 0 .8.13 2.59 2.59 0 0 0 2.41-1.69 4.08 4.08 0 0 1 7.62 0 2.58 2.58 0 0 0 2.4 1.69 2.44 2.44 0 0 0 .8-.13 22.2 22.2 0 0 0 3.15-1.3 2.55 2.55 0 0 0 1.15-3.36 4.08 4.08 0 0 1 3.67-5.71 4.19 4.19 0 0 1 1.68.35 2.7 2.7 0 0 0 1.1.24 2.53 2.53 0 0 0 2.26-1.39 22.2 22.2 0 0 0 1.33-3.2 2.54 2.54 0 0 0 -1.56-3.19 4.08 4.08 0 0 1 0-7.63 2.56 2.56 0 0 0 1.56-3.18 22.2 22.2 0 0 0 -1.3-3.15 2.53 2.53 0 0 0 -2.26-1.39 2.78 2.78 0 0 0 -1.11.24 4.12 4.12 0 0 1 -1.67.36 4.09 4.09 0 0 1 -3.72-5.76 2.55 2.55 0 0 0 -1.15-3.36 22.2 22.2 0 0 0 -3.16-1.31 2.53 2.53 0 0 0 -.8-.13 2.58 2.58 0 0 0 -2.4 1.69 4.09 4.09 0 0 1 -7.63 0 2.57 2.57 0 0 0 -2.39-1.69z" fill="none"/></svg>